<mxfile host="app.diagrams.net" modified="2024-06-25T14:38:07.110Z" agent="Mozilla/5.0 (Macintosh; Intel Mac OS X 10_15_7) AppleWebKit/537.36 (KHTML, like Gecko) Chrome/126.0.0.0 Safari/537.36" etag="E40wP5FfDzZjhibpCrZF" version="24.6.2" type="github">
  <diagram name="Page-1" id="BI5JWG1uMbHf61hnUdrM">
    <mxGraphModel dx="1434" dy="705" grid="1" gridSize="10" guides="1" tooltips="1" connect="1" arrows="1" fold="1" page="1" pageScale="1" pageWidth="850" pageHeight="1100" background="#000000" math="0" shadow="0">
      <root>
        <mxCell id="0" />
        <mxCell id="1" parent="0" />
        <mxCell id="jteI3i1hh8Ab2ZWnCAN9-18" style="edgeStyle=orthogonalEdgeStyle;rounded=0;orthogonalLoop=1;jettySize=auto;html=1;exitX=0.5;exitY=1;exitDx=0;exitDy=0;strokeColor=#FFFFFF;" edge="1" parent="1" source="jteI3i1hh8Ab2ZWnCAN9-2" target="jteI3i1hh8Ab2ZWnCAN9-3">
          <mxGeometry relative="1" as="geometry" />
        </mxCell>
        <mxCell id="jteI3i1hh8Ab2ZWnCAN9-19" style="edgeStyle=orthogonalEdgeStyle;rounded=0;orthogonalLoop=1;jettySize=auto;html=1;exitX=0.5;exitY=1;exitDx=0;exitDy=0;strokeColor=#FFFFFF;" edge="1" parent="1" source="jteI3i1hh8Ab2ZWnCAN9-2" target="jteI3i1hh8Ab2ZWnCAN9-6">
          <mxGeometry relative="1" as="geometry" />
        </mxCell>
        <mxCell id="jteI3i1hh8Ab2ZWnCAN9-22" style="edgeStyle=orthogonalEdgeStyle;rounded=0;orthogonalLoop=1;jettySize=auto;html=1;exitX=0.5;exitY=1;exitDx=0;exitDy=0;strokeColor=#FFFFFF;" edge="1" parent="1" source="jteI3i1hh8Ab2ZWnCAN9-2" target="jteI3i1hh8Ab2ZWnCAN9-10">
          <mxGeometry relative="1" as="geometry" />
        </mxCell>
        <mxCell id="jteI3i1hh8Ab2ZWnCAN9-2" value="&lt;font color=&quot;#ffffff&quot;&gt;Customer Escalations&lt;/font&gt;" style="rounded=0;whiteSpace=wrap;html=1;align=center;strokeColor=#FFFFFF;fillColor=#000000;" vertex="1" parent="1">
          <mxGeometry x="580" y="170" width="160" height="60" as="geometry" />
        </mxCell>
        <mxCell id="jteI3i1hh8Ab2ZWnCAN9-8" value="&lt;font color=&quot;#ffffff&quot;&gt;Drone not responding on map&lt;br&gt;Reason: Signal loss&lt;br&gt;Mitigation: Enhanced communication systems&lt;/font&gt;" style="rounded=0;whiteSpace=wrap;html=1;fillColor=#000000;strokeColor=#FFFFFF;" vertex="1" parent="1">
          <mxGeometry x="380" y="640" width="220" height="80" as="geometry" />
        </mxCell>
        <mxCell id="jteI3i1hh8Ab2ZWnCAN9-20" style="edgeStyle=orthogonalEdgeStyle;rounded=0;orthogonalLoop=1;jettySize=auto;html=1;entryX=0.5;entryY=0;entryDx=0;entryDy=0;strokeColor=#FFFFFF;" edge="1" parent="1" source="jteI3i1hh8Ab2ZWnCAN9-10" target="jteI3i1hh8Ab2ZWnCAN9-11">
          <mxGeometry relative="1" as="geometry" />
        </mxCell>
        <mxCell id="jteI3i1hh8Ab2ZWnCAN9-21" style="edgeStyle=orthogonalEdgeStyle;rounded=0;orthogonalLoop=1;jettySize=auto;html=1;exitX=0.5;exitY=1;exitDx=0;exitDy=0;entryX=0.5;entryY=0;entryDx=0;entryDy=0;strokeColor=#FFFFFF;" edge="1" parent="1" source="jteI3i1hh8Ab2ZWnCAN9-10" target="jteI3i1hh8Ab2ZWnCAN9-12">
          <mxGeometry relative="1" as="geometry" />
        </mxCell>
        <mxCell id="jteI3i1hh8Ab2ZWnCAN9-10" value="&lt;font color=&quot;#ffffff&quot;&gt;Quality Issues&lt;/font&gt;" style="rounded=0;whiteSpace=wrap;html=1;strokeColor=#FFFFFF;fillColor=#000000;" vertex="1" parent="1">
          <mxGeometry x="1100" y="390" width="140" height="60" as="geometry" />
        </mxCell>
        <mxCell id="jteI3i1hh8Ab2ZWnCAN9-15" style="edgeStyle=orthogonalEdgeStyle;rounded=0;orthogonalLoop=1;jettySize=auto;html=1;exitX=0.5;exitY=1;exitDx=0;exitDy=0;entryX=0.5;entryY=0;entryDx=0;entryDy=0;strokeColor=#FFFFFF;" edge="1" parent="1" source="jteI3i1hh8Ab2ZWnCAN9-6" target="jteI3i1hh8Ab2ZWnCAN9-7">
          <mxGeometry relative="1" as="geometry" />
        </mxCell>
        <mxCell id="jteI3i1hh8Ab2ZWnCAN9-6" value="&lt;font color=&quot;#ffffff&quot;&gt;Technical Issues&lt;/font&gt;" style="rounded=0;whiteSpace=wrap;html=1;strokeColor=#FFFFFF;fillColor=#000000;" vertex="1" parent="1">
          <mxGeometry x="590" y="390" width="140" height="60" as="geometry" />
        </mxCell>
        <mxCell id="jteI3i1hh8Ab2ZWnCAN9-13" style="edgeStyle=orthogonalEdgeStyle;rounded=0;orthogonalLoop=1;jettySize=auto;html=1;exitX=0.5;exitY=1;exitDx=0;exitDy=0;entryX=0.5;entryY=0;entryDx=0;entryDy=0;strokeColor=#FFFFFF;" edge="1" parent="1" source="jteI3i1hh8Ab2ZWnCAN9-3" target="jteI3i1hh8Ab2ZWnCAN9-4">
          <mxGeometry relative="1" as="geometry" />
        </mxCell>
        <mxCell id="jteI3i1hh8Ab2ZWnCAN9-14" style="edgeStyle=orthogonalEdgeStyle;rounded=0;orthogonalLoop=1;jettySize=auto;html=1;exitX=0.5;exitY=1;exitDx=0;exitDy=0;entryX=0.5;entryY=0;entryDx=0;entryDy=0;strokeColor=#FFFFFF;" edge="1" parent="1" source="jteI3i1hh8Ab2ZWnCAN9-3" target="jteI3i1hh8Ab2ZWnCAN9-5">
          <mxGeometry relative="1" as="geometry" />
        </mxCell>
        <mxCell id="jteI3i1hh8Ab2ZWnCAN9-3" value="&lt;font color=&quot;#ffffff&quot;&gt;Delivery Issues&lt;/font&gt;" style="rounded=0;whiteSpace=wrap;html=1;strokeColor=#FFFFFF;fillColor=#000000;" vertex="1" parent="1">
          <mxGeometry x="210" y="390" width="140" height="60" as="geometry" />
        </mxCell>
        <mxCell id="jteI3i1hh8Ab2ZWnCAN9-4" value="&lt;font color=&quot;#ffffff&quot;&gt;Not Delivered&lt;br&gt;Reason: Drone navigation error&lt;br&gt;Mitigation: Real-time monitoring and rerouting&lt;/font&gt;" style="rounded=0;whiteSpace=wrap;html=1;strokeColor=#FFFFFF;fillColor=#000000;" vertex="1" parent="1">
          <mxGeometry x="20" y="490" width="180" height="80" as="geometry" />
        </mxCell>
        <mxCell id="jteI3i1hh8Ab2ZWnCAN9-5" value="&lt;font color=&quot;#ffffff&quot;&gt;Partial Delivery (Food missing)&lt;br&gt;Reason: Loading error or theft&lt;br&gt;Mitigation: Secure loading practices, theft detection sensors&lt;/font&gt;" style="rounded=0;whiteSpace=wrap;html=1;strokeColor=#FFFFFF;fillColor=#000000;" vertex="1" parent="1">
          <mxGeometry x="320" y="490" width="220" height="80" as="geometry" />
        </mxCell>
        <mxCell id="jteI3i1hh8Ab2ZWnCAN9-16" style="edgeStyle=orthogonalEdgeStyle;rounded=0;orthogonalLoop=1;jettySize=auto;html=1;exitX=0.5;exitY=1;exitDx=0;exitDy=0;entryX=0.5;entryY=0;entryDx=0;entryDy=0;strokeColor=#FFFFFF;" edge="1" parent="1" source="jteI3i1hh8Ab2ZWnCAN9-7" target="jteI3i1hh8Ab2ZWnCAN9-8">
          <mxGeometry relative="1" as="geometry" />
        </mxCell>
        <mxCell id="jteI3i1hh8Ab2ZWnCAN9-17" style="edgeStyle=orthogonalEdgeStyle;rounded=0;orthogonalLoop=1;jettySize=auto;html=1;exitX=0.5;exitY=1;exitDx=0;exitDy=0;strokeColor=#FFFFFF;" edge="1" parent="1" source="jteI3i1hh8Ab2ZWnCAN9-7" target="jteI3i1hh8Ab2ZWnCAN9-9">
          <mxGeometry relative="1" as="geometry" />
        </mxCell>
        <mxCell id="jteI3i1hh8Ab2ZWnCAN9-7" value="&lt;font color=&quot;#ffffff&quot;&gt;Drone Malfunctions&lt;/font&gt;" style="rounded=0;whiteSpace=wrap;html=1;fillColor=#000000;strokeColor=#FFFFFF;" vertex="1" parent="1">
          <mxGeometry x="580" y="500" width="160" height="60" as="geometry" />
        </mxCell>
        <mxCell id="jteI3i1hh8Ab2ZWnCAN9-9" value="&lt;font color=&quot;#ffffff&quot;&gt;Drone crashed/lost&lt;br&gt;Reason: Technical failure or external interference&lt;br&gt;Mitigation: Robust drone design, emergency response protocols&lt;/font&gt;" style="rounded=0;whiteSpace=wrap;html=1;fillColor=#000000;strokeColor=#FFFFFF;" vertex="1" parent="1">
          <mxGeometry x="710" y="640" width="280" height="80" as="geometry" />
        </mxCell>
        <mxCell id="jteI3i1hh8Ab2ZWnCAN9-11" value="&lt;font color=&quot;#ffffff&quot;&gt;Food not hot enough&lt;br&gt;Reason: Insufficient insulation&lt;br&gt;Mitigation: Improved thermal insulation materials&lt;/font&gt;" style="rounded=0;whiteSpace=wrap;html=1;strokeColor=#FFFFFF;fillColor=#000000;" vertex="1" parent="1">
          <mxGeometry x="880" y="550" width="240" height="80" as="geometry" />
        </mxCell>
        <mxCell id="jteI3i1hh8Ab2ZWnCAN9-12" value="&lt;font color=&quot;#ffffff&quot;&gt;Packaging tampered&lt;br&gt;Reason: Security breach&lt;br&gt;Mitigation: Tamper-evident packaging, security alarms&lt;/font&gt;" style="rounded=0;whiteSpace=wrap;html=1;strokeColor=#FFFFFF;fillColor=#000000;" vertex="1" parent="1">
          <mxGeometry x="1280" y="550" width="260" height="80" as="geometry" />
        </mxCell>
      </root>
    </mxGraphModel>
  </diagram>
</mxfile>
